<svg id="nyvo-noborder-svg" xmlns="http://www.w3.org/2000/svg" xmlns:xlink="http://www.w3.org/1999/xlink" viewBox="0 0 1024 1024" shape-rendering="geometricPrecision" text-rendering="geometricPrecision" project-id="df952f4945b641d2b7709734579a970e" export-id="ccb4000e2cfa4e7da9eb42065dbcac28" cached="false"><defs><linearGradient id="nyvo-noborder-svg-u-n-stylized-fill" x1="0.044683" y1="0.009194" x2="0.707464" y2="0.880046" spreadMethod="pad" gradientUnits="objectBoundingBox" gradientTransform="translate(0 0)"><stop id="nyvo-noborder-svg-u-n-stylized-fill-0" offset="0%" stop-color="#22c55e"/><stop id="nyvo-noborder-svg-u-n-stylized-fill-1" offset="47%" stop-color="#2dd4bf"/><stop id="nyvo-noborder-svg-u-n-stylized-fill-2" offset="100%" stop-color="#4338ca"/></linearGradient></defs><path id="nyvo-noborder-svg-u-n-stylized" d="M36.65396,895.730278c-12.529693-4.360947-22.157772-12.946561-28.09289-25.348003C5,862.750618,5,862.750618,5,451.867666s0-410.882952,4.220528-420.013685C14.364297,20.406496,23.596702,10.730645,34.01613,5.415741c7.91349-3.952108,7.91349-3.952108,71.22141-4.360947c70.957627-.545118,74.123023-.272559,86.257041,7.904216c8.309165,5.587463,11.078886,8.721894,184.779992,217.22966c20.575074,24.802885,49.063638,58.872781,63.044137,75.77145c48.667964,58.327663,159.324933,191.609098,201.26643,242.577663c23.081013,28.073595,42.469063,51.104845,42.864738,51.104845.395675-.13628,26.3783-26.710799,57.636586-59.28162c56.845237-59.28162,56.845237-59.28162,31.917743-83.811946-32.972875-32.298262-76.628962-79.450999-82.827862-89.535688-2.769722-4.360947-5.671335-11.038646-6.462684-14.854475-1.978373-9.675851-1.978373-202.920304,0-210.415681c1.978373-7.359098,10.946995-16.48983,17.54157-17.716346c12.134018-2.453033,3.297288-10.766087,164.996267,156.994083c82.036513,85.174741,150.751985,157.130363,152.862249,160.128514c8.177273,11.583765,12.002127,30.526627,8.704839,44.835984-.923241,4.088388-3.429179,11.311206-5.671335,16.217271-3.824854,8.176775-16.222655,21.395895-175.547587,186.294194C728.42488,806.467149,673.294233,862.750618,669.469379,864.658532c-9.62808,4.906065-20.047508,3.40699-29.148022-4.497226-2.242156-2.044194-26.3783-30.254068-53.284166-62.55233C499.988801,693.355092,376.142682,545.7643,264.166798,413.027984c-32.313418-38.294564-60.933873-72.228181-63.571703-75.63517-5.011877-5.996302-5.011877-5.996302-5.011877,197.060282c0,225.815274.659458,208.235208-8.968622,227.450629-4.220528,8.313055-12.134018,17.171228-60.142524,67.867234-48.140398,50.696006-56.317671,58.736502-63.30792,62.279771-9.496188,4.906065-19.124268,6.132581-26.510192,3.679549Z" transform="translate(-5 63.059508)" fill="url(#nyvo-noborder-svg-u-n-stylized-fill)"/></svg>
